<?xml version="1.0" standalone="no"?>
<!DOCTYPE svg PUBLIC "-//W3C//DTD SVG 20010904//EN"
 "http://www.w3.org/TR/2001/REC-SVG-20010904/DTD/svg10.dtd">
<svg version="1.0" xmlns="http://www.w3.org/2000/svg"
 width="1951.000000pt" height="2846.000000pt" viewBox="0 0 1951.000000 2846.000000"
 preserveAspectRatio="xMidYMid meet">

<g transform="translate(0.000000,2846.000000) scale(0.100000,-0.100000)"
fill="#000000" stroke="none">
<path d="M1180 28448 c-51 -14 -100 -55 -121 -102 -18 -40 -19 -179 -19 -5056
0 -4877 1 -5016 19 -5056 22 -49 70 -88 126 -103 52 -14 2716 -15 2965 -1 557
32 990 148 1300 348 249 160 477 426 619 722 196 409 287 914 321 1780 13 336
13 4284 0 4620 -38 978 -158 1543 -417 1959 -83 134 -239 318 -348 412 -335
288 -808 440 -1485 479 -244 13 -2911 12 -2960 -2z m2811 -1235 c346 -85 536
-296 634 -708 49 -201 77 -461 95 -870 13 -293 13 -4398 0 -4695 -35 -802
-124 -1149 -349 -1370 -90 -88 -160 -132 -275 -171 -159 -55 -227 -60 -848
-66 l-568 -5 0 3956 0 3957 613 -4 c578 -3 617 -5 698 -24z"/>
<path d="M7199 28444 c-65 -20 -114 -76 -129 -147 -7 -38 -10 -202 -8 -528 3
-471 3 -474 26 -516 12 -24 41 -55 64 -70 l42 -28 823 -3 823 -2 0 -4435 c0
-3988 2 -4439 16 -4473 22 -55 62 -91 118 -107 75 -22 1408 -22 1483 0 68 20
117 74 132 144 8 38 11 1273 11 4461 l0 4410 808 0 c767 0 809 1 848 19 49 22
88 70 103 126 7 26 11 200 11 506 0 516 -2 534 -62 596 -66 68 126 63 -2597
62 -2105 0 -2473 -2 -2512 -15z"/>
<path d="M13199 28444 c-57 -17 -113 -76 -129 -133 -16 -60 -8 -7820 8 -7991
55 -565 133 -890 288 -1199 275 -548 808 -915 1530 -1055 394 -76 902 -95
1329 -51 858 89 1430 404 1789 984 216 350 316 697 378 1316 16 164 24 7936 8
7996 -6 22 -27 58 -47 80 -63 70 -55 69 -768 69 -713 0 -705 1 -768 -69 -20
-22 -40 -57 -46 -78 -8 -26 -11 -1196 -11 -3858 0 -2401 -4 -3885 -10 -3995
-23 -403 -71 -635 -171 -830 -138 -271 -356 -411 -700 -451 -257 -30 -520 17
-687 122 -240 150 -366 372 -432 764 -45 269 -43 102 -49 4300 -5 3318 -8
3954 -20 3975 -27 50 -75 91 -125 105 -72 22 -1297 21 -1367 -1z"/>
<path d="M2067 14043 c-1137 -598 -2064 -1090 -2060 -1093 19 -16 4132 -2170
4144 -2170 8 0 201 72 429 161 2434 942 3531 1270 4600 1374 227 22 692 30
920 16 1135 -71 2256 -394 4810 -1386 223 -87 416 -159 430 -162 19 -3 561
277 2089 1080 1134 595 2063 1087 2063 1091 -1 10 -4121 2176 -4140 2176 -7 0
-199 -72 -425 -159 -2616 -1011 -3670 -1317 -4807 -1392 -218 -14 -736 -6
-950 15 -1062 107 -2086 411 -4446 1320 -309 119 -568 216 -575 216 -8 -1
-944 -490 -2082 -1087z"/>
<path d="M2080 8664 c-1135 -596 -2068 -1088 -2071 -1092 -4 -4 926 -497 2067
-1095 l2075 -1089 67 27 c165 66 933 360 1294 496 1835 688 2799 949 3798
1030 80 6 278 12 440 12 396 0 663 -22 1070 -89 915 -149 1957 -480 4000
-1269 223 -86 434 -168 470 -181 l65 -24 2072 1087 c1140 599 2073 1090 2073
1093 -1 3 -934 494 -2074 1093 l-2073 1087 -364 -141 c-830 -321 -1555 -591
-2054 -763 -2261 -779 -3471 -852 -5355 -320 -715 202 -1543 494 -3052 1078
-208 80 -379 146 -380 146 -2 -1 -932 -489 -2068 -1086z"/>
<path d="M2085 3282 c-1127 -593 -2058 -1082 -2068 -1088 -16 -9 319 -188
2051 -1097 1139 -598 2076 -1087 2084 -1087 7 0 198 71 423 159 2448 947 3533
1272 4605 1376 227 22 692 30 920 16 1135 -71 2255 -394 4810 -1386 223 -87
416 -159 430 -162 19 -3 561 277 2090 1081 1136 596 2063 1088 2061 1093 -4
10 -4122 2172 -4138 2173 -6 0 -193 -70 -415 -156 -2768 -1072 -3882 -1380
-5068 -1401 -1271 -23 -2405 276 -5255 1383 -236 91 -441 168 -455 170 -18 3
-604 -301 -2075 -1074z"/>
</g>
</svg>
